<svg xmlns="http://www.w3.org/2000/svg" xmlns:xlink="http://www.w3.org/1999/xlink" xmlns:lucid="lucid" width="1391.6" height="837"><g transform="translate(666.7989113873468 180.5)" lucid:page-tab-id="0_0"><path d="M-1000-500h2000v1500h-2000z" fill="#fff"/><path d="M-624.3-155a5 5 0 0 1 5-5h270a5 5 0 0 1 5 5v318a5 5 0 0 1-5 5h-270a5 5 0 0 1-5-5z" fill="#fff"/><path d="M-624.3-120v-35a5 5 0 0 1 5-5h270a5 5 0 0 1 5 5v35" fill="#dedeff"/><path d="M-624.3-155a5 5 0 0 1 5-5h270a5 5 0 0 1 5 5v318a5 5 0 0 1-5 5h-270a5 5 0 0 1-5-5zM-624.3-120h280M-484.3-120v288" stroke="#282c33" fill="none"/><use xlink:href="#a" transform="matrix(1,0,0,1,-614.2989273037927,-160) translate(0 23.6)"/><use xlink:href="#b" transform="matrix(1,0,0,1,-619.2989273037927,-117.5) translate(0 17.1)"/><use xlink:href="#c" transform="matrix(1,0,0,1,-479.29892730379265,-117.5) translate(0 17.1)"/><use xlink:href="#d" transform="matrix(1,0,0,1,-619.2989273037927,-85.5) translate(0 17.1)"/><use xlink:href="#e" transform="matrix(1,0,0,1,-479.29892730379265,-85.5) translate(0 17.1)"/><use xlink:href="#f" transform="matrix(1,0,0,1,-619.2989273037927,-53.5) translate(0 17.1)"/><use xlink:href="#e" transform="matrix(1,0,0,1,-479.29892730379265,-53.5) translate(0 17.1)"/><use xlink:href="#g" transform="matrix(1,0,0,1,-619.2989273037927,-21.5) translate(0 17.1)"/><use xlink:href="#e" transform="matrix(1,0,0,1,-479.29892730379265,-21.5) translate(0 17.1)"/><use xlink:href="#h" transform="matrix(1,0,0,1,-619.2989273037927,10.5) translate(0 17.1)"/><use xlink:href="#e" transform="matrix(1,0,0,1,-479.29892730379265,10.5) translate(0 17.1)"/><use xlink:href="#i" transform="matrix(1,0,0,1,-619.2989273037927,42.5) translate(0 17.1)"/><use xlink:href="#e" transform="matrix(1,0,0,1,-479.29892730379265,42.5) translate(0 17.1)"/><use xlink:href="#j" transform="matrix(1,0,0,1,-619.2989273037927,74.5) translate(0 17.1)"/><use xlink:href="#e" transform="matrix(1,0,0,1,-479.29892730379265,74.5) translate(0 17.1)"/><use xlink:href="#k" transform="matrix(1,0,0,1,-619.2989273037927,106.5) translate(0 17.1)"/><use xlink:href="#l" transform="matrix(1,0,0,1,-479.29892730379265,106.5) translate(0 17.1)"/><use xlink:href="#m" transform="matrix(1,0,0,1,-619.2989273037927,138.5) translate(0 17.1)"/><use xlink:href="#l" transform="matrix(1,0,0,1,-479.29892730379265,138.5) translate(0 17.1)"/><path d="M424.3-155a5 5 0 0 1 5-5h270a5 5 0 0 1 5 5V67a5 5 0 0 1-5 5h-270a5 5 0 0 1-5-5z" fill="#fff"/><path d="M424.3-120v-35a5 5 0 0 1 5-5h270a5 5 0 0 1 5 5v35" fill="#dedeff"/><path d="M424.3-155a5 5 0 0 1 5-5h270a5 5 0 0 1 5 5V67a5 5 0 0 1-5 5h-270a5 5 0 0 1-5-5zM424.3-120h280M564.3-120V72" stroke="#282c33" fill="none"/><use xlink:href="#n" transform="matrix(1,0,0,1,434.29892730379265,-160) translate(0 23.6)"/><use xlink:href="#b" transform="matrix(1,0,0,1,429.29892730379265,-117.5) translate(0 17.1)"/><use xlink:href="#c" transform="matrix(1,0,0,1,569.2989273037927,-117.5) translate(0 17.1)"/><use xlink:href="#o" transform="matrix(1,0,0,1,429.29892730379265,-85.5) translate(0 17.1)"/><use xlink:href="#p" transform="matrix(1,0,0,1,569.2989273037927,-85.5) translate(0 17.1)"/><use xlink:href="#q" transform="matrix(1,0,0,1,429.29892730379265,-53.5) translate(0 17.1)"/><use xlink:href="#e" transform="matrix(1,0,0,1,569.2989273037927,-53.5) translate(0 17.1)"/><use xlink:href="#r" transform="matrix(1,0,0,1,429.29892730379265,-21.5) translate(0 17.1)"/><use xlink:href="#s" transform="matrix(1,0,0,1,569.2989273037927,-21.5) translate(0 17.1)"/><use xlink:href="#k" transform="matrix(1,0,0,1,429.29892730379265,10.5) translate(0 17.1)"/><use xlink:href="#l" transform="matrix(1,0,0,1,569.2989273037927,10.5) translate(0 17.1)"/><use xlink:href="#m" transform="matrix(1,0,0,1,429.29892730379265,42.5) translate(0 17.1)"/><use xlink:href="#l" transform="matrix(1,0,0,1,569.2989273037927,42.5) translate(0 17.1)"/><path d="M-100-155a5 5 0 0 1 5-5h270a5 5 0 0 1 5 5v414a5 5 0 0 1-5 5H-95a5 5 0 0 1-5-5z" fill="#fff"/><path d="M-100-120v-35a5 5 0 0 1 5-5h270a5 5 0 0 1 5 5v35" fill="#dedeff"/><path d="M-100-155a5 5 0 0 1 5-5h270a5 5 0 0 1 5 5v414a5 5 0 0 1-5 5H-95a5 5 0 0 1-5-5zM-100-120h280M58.04-120v384" stroke="#282c33" fill="none"/><use xlink:href="#t" transform="matrix(1,0,0,1,-90,-160) translate(0 23.6)"/><use xlink:href="#b" transform="matrix(1,0,0,1,-95,-117.5) translate(0 17.1)"/><use xlink:href="#c" transform="matrix(1,0,0,1,63.04059210111609,-117.5) translate(0 17.1)"/><use xlink:href="#u" transform="matrix(1,0,0,1,-95,-85.5) translate(0 17.1)"/><use xlink:href="#p" transform="matrix(1,0,0,1,63.04059210111609,-85.5) translate(0 17.1)"/><use xlink:href="#d" transform="matrix(1,0,0,1,-95,-53.5) translate(0 17.1)"/><use xlink:href="#e" transform="matrix(1,0,0,1,63.04059210111609,-53.5) translate(0 17.1)"/><use xlink:href="#v" transform="matrix(1,0,0,1,-95,-21.5) translate(0 17.1)"/><use xlink:href="#e" transform="matrix(1,0,0,1,63.04059210111609,-21.5) translate(0 17.1)"/><use xlink:href="#w" transform="matrix(1,0,0,1,-95,10.5) translate(0 17.1)"/><use xlink:href="#x" transform="matrix(1,0,0,1,63.04059210111609,10.5) translate(0 17.1)"/><use xlink:href="#y" transform="matrix(1,0,0,1,-95,42.5) translate(0 17.1)"/><use xlink:href="#p" transform="matrix(1,0,0,1,63.04059210111609,42.5) translate(0 17.1)"/><use xlink:href="#z" transform="matrix(1,0,0,1,-95,74.5) translate(0 17.1)"/><use xlink:href="#p" transform="matrix(1,0,0,1,63.04059210111609,74.5) translate(0 17.1)"/><use xlink:href="#A" transform="matrix(1,0,0,1,-95,106.5) translate(0 17.1)"/><use xlink:href="#x" transform="matrix(1,0,0,1,63.04059210111609,106.5) translate(0 17.1)"/><use xlink:href="#B" transform="matrix(1,0,0,1,-95,138.5) translate(0 17.1)"/><use xlink:href="#p" transform="matrix(1,0,0,1,63.04059210111609,138.5) translate(0 17.1)"/><use xlink:href="#C" transform="matrix(1,0,0,1,-95,170.5) translate(0 17.1)"/><use xlink:href="#e" transform="matrix(1,0,0,1,63.04059210111609,170.5) translate(0 17.1)"/><use xlink:href="#k" transform="matrix(1,0,0,1,-95,202.5) translate(0 17.1)"/><use xlink:href="#l" transform="matrix(1,0,0,1,63.04059210111609,202.5) translate(0 17.1)"/><use xlink:href="#m" transform="matrix(1,0,0,1,-95,234.5) translate(0 17.1)"/><use xlink:href="#l" transform="matrix(1,0,0,1,63.04059210111609,234.5) translate(0 17.1)"/><path d="M-624.3 345a5 5 0 0 1 5-5h270a5 5 0 0 1 5 5v286a5 5 0 0 1-5 5h-270a5 5 0 0 1-5-5z" fill="#fff"/><path d="M-624.3 380v-35a5 5 0 0 1 5-5h270a5 5 0 0 1 5 5v35" fill="#dedeff"/><path d="M-624.3 345a5 5 0 0 1 5-5h270a5 5 0 0 1 5 5v286a5 5 0 0 1-5 5h-270a5 5 0 0 1-5-5zM-624.3 380h280M-486.02 380v256" stroke="#282c33" fill="none"/><use xlink:href="#D" transform="matrix(1,0,0,1,-614.2989273037927,340) translate(0 23.6)"/><use xlink:href="#b" transform="matrix(1,0,0,1,-619.2989273037927,382.5) translate(0 17.1)"/><use xlink:href="#c" transform="matrix(1,0,0,1,-481.0190927279312,382.5) translate(0 17.1)"/><use xlink:href="#u" transform="matrix(1,0,0,1,-619.2989273037927,414.5) translate(0 17.1)"/><use xlink:href="#p" transform="matrix(1,0,0,1,-481.0190927279312,414.5) translate(0 17.1)"/><use xlink:href="#o" transform="matrix(1,0,0,1,-619.2989273037927,446.5) translate(0 17.1)"/><use xlink:href="#p" transform="matrix(1,0,0,1,-481.0190927279312,446.5) translate(0 17.1)"/><use xlink:href="#E" transform="matrix(1,0,0,1,-619.2989273037927,478.5) translate(0 17.1)"/><use xlink:href="#p" transform="matrix(1,0,0,1,-481.0190927279312,478.5) translate(0 17.1)"/><use xlink:href="#F" transform="matrix(1,0,0,1,-619.2989273037927,510.5) translate(0 17.1)"/><use xlink:href="#e" transform="matrix(1,0,0,1,-481.0190927279312,510.5) translate(0 17.1)"/><use xlink:href="#G" transform="matrix(1,0,0,1,-619.2989273037927,542.5) translate(0 17.1)"/><use xlink:href="#e" transform="matrix(1,0,0,1,-481.0190927279312,542.5) translate(0 17.1)"/><use xlink:href="#k" transform="matrix(1,0,0,1,-619.2989273037927,574.5) translate(0 17.1)"/><use xlink:href="#l" transform="matrix(1,0,0,1,-481.0190927279312,574.5) translate(0 17.1)"/><use xlink:href="#m" transform="matrix(1,0,0,1,-619.2989273037927,606.5) translate(0 17.1)"/><use xlink:href="#l" transform="matrix(1,0,0,1,-481.0190927279312,606.5) translate(0 17.1)"/><path d="M-323.8-104.4h95.65a6 6 0 0 1 6 6v19.96a6 6 0 0 0 6 6H-140" stroke="#3a414a" fill="none"/><path d="M-333.8-94.4v-20M-343.8-104.4h20M-323.8-94.4v-20" stroke="#3a414a" fill="#fff"/><path d="M-100.72-62.44l-20-10 20-10" stroke="#3a414a" fill="#fff" fill-opacity="0"/><path d="M-100.72-72.44h-20M-120.72-72.44c0 5.52-4.48 10-10 10-5.53 0-10-4.48-10-10 0-5.53 4.47-10 10-10 5.52 0 10 4.47 10 10" stroke="#3a414a" fill="#fff"/><path d="M200.5-104.56h95.65a6 6 0 0 1 6 6v20.46a6 6 0 0 0 6 6h95.65" stroke="#3a414a" fill="none"/><path d="M190.5-94.56v-20M180.5-104.56h20M200.5-94.56v-20" stroke="#3a414a" fill="#fff"/><path d="M423.57-62.1l-20-10 20-10" stroke="#3a414a" fill="#fff" fill-opacity="0"/><path d="M423.57-72.1h-20M403.57-82.1v20" stroke="#3a414a" fill="#fff"/><path d="M-644.8-104.4h-14a6 6 0 0 0-6 6v525.7a.5.5 0 0 0 .5.5" stroke="#3a414a" fill="none"/><path d="M-634.8-114.4v20M-624.8-104.4h-20M-644.8-114.4v20" stroke="#3a414a" fill="#fff"/><path d="M-625.02 437.8l-20-10 20-10" stroke="#3a414a" fill="#fff" fill-opacity="0"/><path d="M-625.02 427.8h-20M-645.02 427.8c0 5.5-4.48 10-10 10s-10-4.5-10-10c0-5.54 4.48-10 10-10s10 4.46 10 10" stroke="#3a414a" fill="#fff"/><path d="M-120.5-104.56H-194a6 6 0 0 0-6 6V453.9a6 6 0 0 1-6 6h-98.3" stroke="#3a414a" fill="none"/><path d="M-110.5-114.56v20M-100.5-104.56h-20M-120.5-114.56v20" stroke="#3a414a" fill="#fff"/><path d="M-343.57 449.9l20 10-20 10" stroke="#3a414a" fill="#fff" fill-opacity="0"/><path d="M-343.57 459.9h20M-303.57 459.9c0 5.52-4.48 10-10 10-5.53 0-10-4.48-10-10s4.47-10 10-10c5.52 0 10 4.48 10 10" stroke="#3a414a" fill="#fff"/><defs><path fill="#333" d="M84 4C-5 8 30-112 23-190h32v120c0 31 7 50 39 49 72-2 45-101 50-169h31l1 190h-30c-1-10 1-25-2-33-11 22-28 36-60 37" id="H"/><path fill="#333" d="M135-143c-3-34-86-38-87 0 15 53 115 12 119 90S17 21 10-45l28-5c4 36 97 45 98 0-10-56-113-15-118-90-4-57 82-63 122-42 12 7 21 19 24 35" id="I"/><path fill="#333" d="M100-194c63 0 86 42 84 106H49c0 40 14 67 53 68 26 1 43-12 49-29l28 8c-11 28-37 45-77 45C44 4 14-33 15-96c1-61 26-98 85-98zm52 81c6-60-76-77-97-28-3 7-6 17-6 28h103" id="J"/><path fill="#333" d="M114-163C36-179 61-72 57 0H25l-1-190h30c1 12-1 29 2 39 6-27 23-49 58-41v29" id="K"/><g id="a"><use transform="matrix(0.05,0,0,0.05,0,0)" xlink:href="#H"/><use transform="matrix(0.05,0,0,0.05,10,0)" xlink:href="#I"/><use transform="matrix(0.05,0,0,0.05,19,0)" xlink:href="#J"/><use transform="matrix(0.05,0,0,0.05,29,0)" xlink:href="#K"/><use transform="matrix(0.05,0,0,0.05,34.95,0)" xlink:href="#I"/></g><path fill="#333" d="M24-231v-30h32v30H24zM24 0v-190h32V0H24" id="L"/><path fill="#333" d="M85-194c31 0 48 13 60 33l-1-100h32l1 261h-30c-2-10 0-23-3-31C134-8 116 4 85 4 32 4 16-35 15-94c0-66 23-100 70-100zm9 24c-40 0-46 34-46 75 0 40 6 74 45 74 42 0 51-32 51-76 0-42-9-74-50-73" id="M"/><g id="b"><use transform="matrix(0.05,0,0,0.05,0,0)" xlink:href="#L"/><use transform="matrix(0.05,0,0,0.05,3.95,0)" xlink:href="#M"/></g><path fill="#333" d="M30-248c87 1 191-15 191 75 0 78-77 80-158 76V0H30v-248zm33 125c57 0 124 11 124-50 0-59-68-47-124-48v98" id="N"/><path fill="#333" d="M194 0L95-120 63-95V0H30v-248h33v124l119-124h40L117-140 236 0h-42" id="O"/><g id="c"><use transform="matrix(0.05,0,0,0.05,0,0)" xlink:href="#N"/><use transform="matrix(0.05,0,0,0.05,12,0)" xlink:href="#O"/></g><path fill="#333" d="M117-194c89-4 53 116 60 194h-32v-121c0-31-8-49-39-48C34-167 62-67 57 0H25l-1-190h30c1 10-1 24 2 32 11-22 29-35 61-36" id="P"/><path fill="#333" d="M141-36C126-15 110 5 73 4 37 3 15-17 15-53c-1-64 63-63 125-63 3-35-9-54-41-54-24 1-41 7-42 31l-33-3c5-37 33-52 76-52 45 0 72 20 72 64v82c-1 20 7 32 28 27v20c-31 9-61-2-59-35zM48-53c0 20 12 33 32 33 41-3 63-29 60-74-43 2-92-5-92 41" id="Q"/><path fill="#333" d="M210-169c-67 3-38 105-44 169h-31v-121c0-29-5-50-35-48C34-165 62-65 56 0H25l-1-190h30c1 10-1 24 2 32 10-44 99-50 107 0 11-21 27-35 58-36 85-2 47 119 55 194h-31v-121c0-29-5-49-35-48" id="R"/><g id="d"><use transform="matrix(0.05,0,0,0.05,0,0)" xlink:href="#P"/><use transform="matrix(0.05,0,0,0.05,10,0)" xlink:href="#Q"/><use transform="matrix(0.05,0,0,0.05,20,0)" xlink:href="#R"/><use transform="matrix(0.05,0,0,0.05,34.95,0)" xlink:href="#J"/></g><path fill="#333" d="M108 0H70L1-190h34L89-25l56-165h34" id="S"/><path fill="#333" d="M96-169c-40 0-48 33-48 73s9 75 48 75c24 0 41-14 43-38l32 2c-6 37-31 61-74 61-59 0-76-41-82-99-10-93 101-131 147-64 4 7 5 14 7 22l-32 3c-4-21-16-35-41-35" id="T"/><path fill="#333" d="M106-169C34-169 62-67 57 0H25v-261h32l-1 103c12-21 28-36 61-36 89 0 53 116 60 194h-32v-121c2-32-8-49-39-48" id="U"/><g id="e"><use transform="matrix(0.05,0,0,0.05,0,0)" xlink:href="#S"/><use transform="matrix(0.05,0,0,0.05,9,0)" xlink:href="#Q"/><use transform="matrix(0.05,0,0,0.05,19,0)" xlink:href="#K"/><use transform="matrix(0.05,0,0,0.05,24.95,0)" xlink:href="#T"/><use transform="matrix(0.05,0,0,0.05,33.95,0)" xlink:href="#U"/><use transform="matrix(0.05,0,0,0.05,43.95,0)" xlink:href="#Q"/><use transform="matrix(0.05,0,0,0.05,53.95,0)" xlink:href="#K"/></g><path fill="#333" d="M100-194c62-1 85 37 85 99 1 63-27 99-86 99S16-35 15-95c0-66 28-99 85-99zM99-20c44 1 53-31 53-75 0-43-8-75-51-75s-53 32-53 75 10 74 51 75" id="V"/><path fill="#333" d="M115-194c55 1 70 41 70 98S169 2 115 4C84 4 66-9 55-30l1 105H24l-1-265h31l2 30c10-21 28-34 59-34zm-8 174c40 0 45-34 45-75s-6-73-45-74c-42 0-51 32-51 76 0 43 10 73 51 73" id="W"/><path fill="#333" d="M59-47c-2 24 18 29 38 22v24C64 9 27 4 27-40v-127H5v-23h24l9-43h21v43h35v23H59v120" id="X"/><g id="f"><use transform="matrix(0.05,0,0,0.05,0,0)" xlink:href="#V"/><use transform="matrix(0.05,0,0,0.05,10,0)" xlink:href="#T"/><use transform="matrix(0.05,0,0,0.05,19,0)" xlink:href="#T"/><use transform="matrix(0.05,0,0,0.05,28,0)" xlink:href="#H"/><use transform="matrix(0.05,0,0,0.05,38,0)" xlink:href="#W"/><use transform="matrix(0.05,0,0,0.05,48,0)" xlink:href="#Q"/><use transform="matrix(0.05,0,0,0.05,58,0)" xlink:href="#X"/><use transform="matrix(0.05,0,0,0.05,63,0)" xlink:href="#L"/><use transform="matrix(0.05,0,0,0.05,66.95,0)" xlink:href="#V"/><use transform="matrix(0.05,0,0,0.05,76.95,0)" xlink:href="#P"/></g><path fill="#333" d="M206 0h-36l-40-164L89 0H53L-1-190h32L70-26l43-164h34l41 164 42-164h31" id="Y"/><path fill="#333" d="M-5 72V49h209v23H-5" id="Z"/><g id="g"><use transform="matrix(0.05,0,0,0.05,0,0)" xlink:href="#W"/><use transform="matrix(0.05,0,0,0.05,10,0)" xlink:href="#Q"/><use transform="matrix(0.05,0,0,0.05,20,0)" xlink:href="#I"/><use transform="matrix(0.05,0,0,0.05,29,0)" xlink:href="#I"/><use transform="matrix(0.05,0,0,0.05,38,0)" xlink:href="#Y"/><use transform="matrix(0.05,0,0,0.05,50.95,0)" xlink:href="#V"/><use transform="matrix(0.05,0,0,0.05,60.95,0)" xlink:href="#K"/><use transform="matrix(0.05,0,0,0.05,66.9,0)" xlink:href="#M"/><use transform="matrix(0.05,0,0,0.05,76.9,0)" xlink:href="#Z"/><use transform="matrix(0.05,0,0,0.05,86.9,0)" xlink:href="#U"/><use transform="matrix(0.05,0,0,0.05,96.9,0)" xlink:href="#Q"/><use transform="matrix(0.05,0,0,0.05,106.9,0)" xlink:href="#I"/><use transform="matrix(0.05,0,0,0.05,115.9,0)" xlink:href="#U"/></g><path fill="#333" d="M101-234c-31-9-42 10-38 44h38v23H63V0H32v-167H5v-23h27c-7-52 17-82 69-68v24" id="aa"/><path fill="#333" d="M24 0v-261h32V0H24" id="ab"/><g id="h"><use transform="matrix(0.05,0,0,0.05,0,0)" xlink:href="#Q"/><use transform="matrix(0.05,0,0,0.05,10,0)" xlink:href="#S"/><use transform="matrix(0.05,0,0,0.05,19,0)" xlink:href="#Q"/><use transform="matrix(0.05,0,0,0.05,29,0)" xlink:href="#X"/><use transform="matrix(0.05,0,0,0.05,34,0)" xlink:href="#Q"/><use transform="matrix(0.05,0,0,0.05,44,0)" xlink:href="#K"/><use transform="matrix(0.05,0,0,0.05,49.95,0)" xlink:href="#Z"/><use transform="matrix(0.05,0,0,0.05,59.95,0)" xlink:href="#aa"/><use transform="matrix(0.05,0,0,0.05,64.95,0)" xlink:href="#L"/><use transform="matrix(0.05,0,0,0.05,68.9,0)" xlink:href="#ab"/><use transform="matrix(0.05,0,0,0.05,72.85000000000001,0)" xlink:href="#J"/><use transform="matrix(0.05,0,0,0.05,82.85000000000001,0)" xlink:href="#Z"/><use transform="matrix(0.05,0,0,0.05,92.85000000000001,0)" xlink:href="#P"/><use transform="matrix(0.05,0,0,0.05,102.85000000000001,0)" xlink:href="#Q"/><use transform="matrix(0.05,0,0,0.05,112.85000000000001,0)" xlink:href="#R"/><use transform="matrix(0.05,0,0,0.05,127.80000000000001,0)" xlink:href="#J"/></g><g id="i"><use transform="matrix(0.05,0,0,0.05,0,0)" xlink:href="#K"/><use transform="matrix(0.05,0,0,0.05,5.95,0)" xlink:href="#V"/><use transform="matrix(0.05,0,0,0.05,15.949999999999998,0)" xlink:href="#ab"/><use transform="matrix(0.05,0,0,0.05,19.9,0)" xlink:href="#J"/></g><path fill="#333" d="M143 0L79-87 56-68V0H24v-261h32v163l83-92h37l-77 82L181 0h-38" id="ac"/><g id="j"><use transform="matrix(0.05,0,0,0.05,0,0)" xlink:href="#X"/><use transform="matrix(0.05,0,0,0.05,5,0)" xlink:href="#V"/><use transform="matrix(0.05,0,0,0.05,15,0)" xlink:href="#ac"/><use transform="matrix(0.05,0,0,0.05,24,0)" xlink:href="#J"/><use transform="matrix(0.05,0,0,0.05,34,0)" xlink:href="#P"/></g><g id="k"><use transform="matrix(0.05,0,0,0.05,0,0)" xlink:href="#T"/><use transform="matrix(0.05,0,0,0.05,9,0)" xlink:href="#K"/><use transform="matrix(0.05,0,0,0.05,14.949999999999998,0)" xlink:href="#J"/><use transform="matrix(0.05,0,0,0.05,24.95,0)" xlink:href="#Q"/><use transform="matrix(0.05,0,0,0.05,34.95,0)" xlink:href="#X"/><use transform="matrix(0.05,0,0,0.05,39.95,0)" xlink:href="#J"/><use transform="matrix(0.05,0,0,0.05,49.95,0)" xlink:href="#M"/><use transform="matrix(0.05,0,0,0.05,59.95,0)" xlink:href="#Z"/><use transform="matrix(0.05,0,0,0.05,69.95,0)" xlink:href="#Q"/><use transform="matrix(0.05,0,0,0.05,79.95,0)" xlink:href="#X"/></g><g id="l"><use transform="matrix(0.05,0,0,0.05,0,0)" xlink:href="#M"/><use transform="matrix(0.05,0,0,0.05,10,0)" xlink:href="#Q"/><use transform="matrix(0.05,0,0,0.05,20,0)" xlink:href="#X"/><use transform="matrix(0.05,0,0,0.05,25,0)" xlink:href="#J"/><use transform="matrix(0.05,0,0,0.05,35,0)" xlink:href="#X"/><use transform="matrix(0.05,0,0,0.05,40,0)" xlink:href="#L"/><use transform="matrix(0.05,0,0,0.05,43.95,0)" xlink:href="#R"/><use transform="matrix(0.05,0,0,0.05,58.900000000000006,0)" xlink:href="#J"/></g><g id="m"><use transform="matrix(0.05,0,0,0.05,0,0)" xlink:href="#H"/><use transform="matrix(0.05,0,0,0.05,10,0)" xlink:href="#W"/><use transform="matrix(0.05,0,0,0.05,20,0)" xlink:href="#M"/><use transform="matrix(0.05,0,0,0.05,30,0)" xlink:href="#Q"/><use transform="matrix(0.05,0,0,0.05,40,0)" xlink:href="#X"/><use transform="matrix(0.05,0,0,0.05,45,0)" xlink:href="#J"/><use transform="matrix(0.05,0,0,0.05,55,0)" xlink:href="#M"/><use transform="matrix(0.05,0,0,0.05,65,0)" xlink:href="#Z"/><use transform="matrix(0.05,0,0,0.05,75,0)" xlink:href="#Q"/><use transform="matrix(0.05,0,0,0.05,85,0)" xlink:href="#X"/></g><path fill="#333" d="M177-190C167-65 218 103 67 71c-23-6-38-20-44-43l32-5c15 47 100 32 89-28v-30C133-14 115 1 83 1 29 1 15-40 15-95c0-56 16-97 71-98 29-1 48 16 59 35 1-10 0-23 2-32h30zM94-22c36 0 50-32 50-73 0-42-14-75-50-75-39 0-46 34-46 75s6 73 46 73" id="ad"/><g id="n"><use transform="matrix(0.05,0,0,0.05,0,0)" xlink:href="#T"/><use transform="matrix(0.05,0,0,0.05,9,0)" xlink:href="#Q"/><use transform="matrix(0.05,0,0,0.05,19,0)" xlink:href="#R"/><use transform="matrix(0.05,0,0,0.05,33.95,0)" xlink:href="#W"/><use transform="matrix(0.05,0,0,0.05,43.95,0)" xlink:href="#Q"/><use transform="matrix(0.05,0,0,0.05,53.95,0)" xlink:href="#L"/><use transform="matrix(0.05,0,0,0.05,57.900000000000006,0)" xlink:href="#ad"/><use transform="matrix(0.05,0,0,0.05,67.9,0)" xlink:href="#P"/><use transform="matrix(0.05,0,0,0.05,77.9,0)" xlink:href="#Z"/><use transform="matrix(0.05,0,0,0.05,87.9,0)" xlink:href="#L"/><use transform="matrix(0.05,0,0,0.05,91.85000000000001,0)" xlink:href="#R"/><use transform="matrix(0.05,0,0,0.05,106.80000000000001,0)" xlink:href="#Q"/><use transform="matrix(0.05,0,0,0.05,116.80000000000001,0)" xlink:href="#ad"/><use transform="matrix(0.05,0,0,0.05,126.80000000000001,0)" xlink:href="#J"/><use transform="matrix(0.05,0,0,0.05,136.8,0)" xlink:href="#I"/></g><g id="o"><use transform="matrix(0.05,0,0,0.05,0,0)" xlink:href="#T"/><use transform="matrix(0.05,0,0,0.05,9,0)" xlink:href="#Q"/><use transform="matrix(0.05,0,0,0.05,19,0)" xlink:href="#R"/><use transform="matrix(0.05,0,0,0.05,33.95,0)" xlink:href="#W"/><use transform="matrix(0.05,0,0,0.05,43.95,0)" xlink:href="#Q"/><use transform="matrix(0.05,0,0,0.05,53.95,0)" xlink:href="#L"/><use transform="matrix(0.05,0,0,0.05,57.900000000000006,0)" xlink:href="#ad"/><use transform="matrix(0.05,0,0,0.05,67.9,0)" xlink:href="#P"/><use transform="matrix(0.05,0,0,0.05,77.9,0)" xlink:href="#Z"/><use transform="matrix(0.05,0,0,0.05,87.9,0)" xlink:href="#L"/><use transform="matrix(0.05,0,0,0.05,91.85000000000001,0)" xlink:href="#M"/></g><g id="p"><use transform="matrix(0.05,0,0,0.05,0,0)" xlink:href="#L"/><use transform="matrix(0.05,0,0,0.05,3.95,0)" xlink:href="#P"/><use transform="matrix(0.05,0,0,0.05,13.949999999999998,0)" xlink:href="#X"/></g><g id="q"><use transform="matrix(0.05,0,0,0.05,0,0)" xlink:href="#aa"/><use transform="matrix(0.05,0,0,0.05,5,0)" xlink:href="#L"/><use transform="matrix(0.05,0,0,0.05,8.95,0)" xlink:href="#ab"/><use transform="matrix(0.05,0,0,0.05,12.899999999999999,0)" xlink:href="#J"/><use transform="matrix(0.05,0,0,0.05,22.9,0)" xlink:href="#Z"/><use transform="matrix(0.05,0,0,0.05,32.9,0)" xlink:href="#P"/><use transform="matrix(0.05,0,0,0.05,42.9,0)" xlink:href="#Q"/><use transform="matrix(0.05,0,0,0.05,52.900000000000006,0)" xlink:href="#R"/><use transform="matrix(0.05,0,0,0.05,67.85,0)" xlink:href="#J"/></g><path fill="#333" d="M179-190L93 31C79 59 56 82 12 73V49c39 6 53-20 64-50L1-190h34L92-34l54-156h33" id="ae"/><g id="r"><use transform="matrix(0.05,0,0,0.05,0,0)" xlink:href="#L"/><use transform="matrix(0.05,0,0,0.05,3.95,0)" xlink:href="#I"/><use transform="matrix(0.05,0,0,0.05,12.949999999999998,0)" xlink:href="#Z"/><use transform="matrix(0.05,0,0,0.05,22.95,0)" xlink:href="#W"/><use transform="matrix(0.05,0,0,0.05,32.95,0)" xlink:href="#K"/><use transform="matrix(0.05,0,0,0.05,38.900000000000006,0)" xlink:href="#L"/><use transform="matrix(0.05,0,0,0.05,42.85000000000001,0)" xlink:href="#R"/><use transform="matrix(0.05,0,0,0.05,57.80000000000001,0)" xlink:href="#Q"/><use transform="matrix(0.05,0,0,0.05,67.80000000000001,0)" xlink:href="#K"/><use transform="matrix(0.05,0,0,0.05,73.75000000000001,0)" xlink:href="#ae"/></g><g id="s"><use transform="matrix(0.05,0,0,0.05,0,0)" xlink:href="#X"/><use transform="matrix(0.05,0,0,0.05,5,0)" xlink:href="#L"/><use transform="matrix(0.05,0,0,0.05,8.95,0)" xlink:href="#P"/><use transform="matrix(0.05,0,0,0.05,18.95,0)" xlink:href="#ae"/><use transform="matrix(0.05,0,0,0.05,27.950000000000003,0)" xlink:href="#L"/><use transform="matrix(0.05,0,0,0.05,31.899999999999995,0)" xlink:href="#P"/><use transform="matrix(0.05,0,0,0.05,41.9,0)" xlink:href="#X"/></g><g id="t"><use transform="matrix(0.05,0,0,0.05,0,0)" xlink:href="#T"/><use transform="matrix(0.05,0,0,0.05,9,0)" xlink:href="#Q"/><use transform="matrix(0.05,0,0,0.05,19,0)" xlink:href="#R"/><use transform="matrix(0.05,0,0,0.05,33.95,0)" xlink:href="#W"/><use transform="matrix(0.05,0,0,0.05,43.95,0)" xlink:href="#Q"/><use transform="matrix(0.05,0,0,0.05,53.95,0)" xlink:href="#L"/><use transform="matrix(0.05,0,0,0.05,57.900000000000006,0)" xlink:href="#ad"/><use transform="matrix(0.05,0,0,0.05,67.9,0)" xlink:href="#P"/><use transform="matrix(0.05,0,0,0.05,77.9,0)" xlink:href="#I"/></g><g id="u"><use transform="matrix(0.05,0,0,0.05,0,0)" xlink:href="#H"/><use transform="matrix(0.05,0,0,0.05,10,0)" xlink:href="#I"/><use transform="matrix(0.05,0,0,0.05,19,0)" xlink:href="#J"/><use transform="matrix(0.05,0,0,0.05,29,0)" xlink:href="#K"/><use transform="matrix(0.05,0,0,0.05,34.95,0)" xlink:href="#Z"/><use transform="matrix(0.05,0,0,0.05,44.95,0)" xlink:href="#L"/><use transform="matrix(0.05,0,0,0.05,48.900000000000006,0)" xlink:href="#M"/></g><g id="v"><use transform="matrix(0.05,0,0,0.05,0,0)" xlink:href="#I"/><use transform="matrix(0.05,0,0,0.05,9,0)" xlink:href="#U"/><use transform="matrix(0.05,0,0,0.05,19,0)" xlink:href="#V"/><use transform="matrix(0.05,0,0,0.05,29,0)" xlink:href="#K"/><use transform="matrix(0.05,0,0,0.05,34.95,0)" xlink:href="#X"/><use transform="matrix(0.05,0,0,0.05,39.95,0)" xlink:href="#Z"/><use transform="matrix(0.05,0,0,0.05,49.95,0)" xlink:href="#M"/><use transform="matrix(0.05,0,0,0.05,59.95,0)" xlink:href="#J"/><use transform="matrix(0.05,0,0,0.05,69.95,0)" xlink:href="#I"/><use transform="matrix(0.05,0,0,0.05,78.95,0)" xlink:href="#T"/><use transform="matrix(0.05,0,0,0.05,87.95,0)" xlink:href="#K"/><use transform="matrix(0.05,0,0,0.05,93.9,0)" xlink:href="#L"/><use transform="matrix(0.05,0,0,0.05,97.85000000000001,0)" xlink:href="#W"/><use transform="matrix(0.05,0,0,0.05,107.85000000000001,0)" xlink:href="#X"/><use transform="matrix(0.05,0,0,0.05,112.85000000000001,0)" xlink:href="#L"/><use transform="matrix(0.05,0,0,0.05,116.80000000000001,0)" xlink:href="#V"/><use transform="matrix(0.05,0,0,0.05,126.80000000000001,0)" xlink:href="#P"/></g><g id="w"><use transform="matrix(0.05,0,0,0.05,0,0)" xlink:href="#M"/><use transform="matrix(0.05,0,0,0.05,10,0)" xlink:href="#J"/><use transform="matrix(0.05,0,0,0.05,20,0)" xlink:href="#I"/><use transform="matrix(0.05,0,0,0.05,29,0)" xlink:href="#T"/><use transform="matrix(0.05,0,0,0.05,38,0)" xlink:href="#K"/><use transform="matrix(0.05,0,0,0.05,43.95,0)" xlink:href="#L"/><use transform="matrix(0.05,0,0,0.05,47.900000000000006,0)" xlink:href="#W"/><use transform="matrix(0.05,0,0,0.05,57.900000000000006,0)" xlink:href="#X"/><use transform="matrix(0.05,0,0,0.05,62.900000000000006,0)" xlink:href="#L"/><use transform="matrix(0.05,0,0,0.05,66.85000000000001,0)" xlink:href="#V"/><use transform="matrix(0.05,0,0,0.05,76.85000000000001,0)" xlink:href="#P"/></g><path fill="#333" d="M141 0L90-78 38 0H4l68-98-65-92h35l48 74 47-74h35l-64 92 68 98h-35" id="af"/><g id="x"><use transform="matrix(0.05,0,0,0.05,0,0)" xlink:href="#X"/><use transform="matrix(0.05,0,0,0.05,5,0)" xlink:href="#J"/><use transform="matrix(0.05,0,0,0.05,15,0)" xlink:href="#af"/><use transform="matrix(0.05,0,0,0.05,24,0)" xlink:href="#X"/></g><g id="y"><use transform="matrix(0.05,0,0,0.05,0,0)" xlink:href="#ad"/><use transform="matrix(0.05,0,0,0.05,10,0)" xlink:href="#V"/><use transform="matrix(0.05,0,0,0.05,20,0)" xlink:href="#Q"/><use transform="matrix(0.05,0,0,0.05,30,0)" xlink:href="#ab"/><use transform="matrix(0.05,0,0,0.05,33.95,0)" xlink:href="#Z"/><use transform="matrix(0.05,0,0,0.05,43.95,0)" xlink:href="#Q"/><use transform="matrix(0.05,0,0,0.05,53.95,0)" xlink:href="#R"/><use transform="matrix(0.05,0,0,0.05,68.9,0)" xlink:href="#V"/><use transform="matrix(0.05,0,0,0.05,78.9,0)" xlink:href="#H"/><use transform="matrix(0.05,0,0,0.05,88.9,0)" xlink:href="#P"/><use transform="matrix(0.05,0,0,0.05,98.9,0)" xlink:href="#X"/></g><g id="z"><use transform="matrix(0.05,0,0,0.05,0,0)" xlink:href="#T"/><use transform="matrix(0.05,0,0,0.05,9,0)" xlink:href="#H"/><use transform="matrix(0.05,0,0,0.05,19,0)" xlink:href="#K"/><use transform="matrix(0.05,0,0,0.05,24.95,0)" xlink:href="#K"/><use transform="matrix(0.05,0,0,0.05,30.899999999999995,0)" xlink:href="#J"/><use transform="matrix(0.05,0,0,0.05,40.9,0)" xlink:href="#P"/><use transform="matrix(0.05,0,0,0.05,50.9,0)" xlink:href="#X"/><use transform="matrix(0.05,0,0,0.05,55.900000000000006,0)" xlink:href="#Z"/><use transform="matrix(0.05,0,0,0.05,65.9,0)" xlink:href="#Q"/><use transform="matrix(0.05,0,0,0.05,75.9,0)" xlink:href="#R"/><use transform="matrix(0.05,0,0,0.05,90.85000000000001,0)" xlink:href="#V"/><use transform="matrix(0.05,0,0,0.05,100.85000000000001,0)" xlink:href="#H"/><use transform="matrix(0.05,0,0,0.05,110.85000000000001,0)" xlink:href="#P"/><use transform="matrix(0.05,0,0,0.05,120.85000000000001,0)" xlink:href="#X"/></g><g id="A"><use transform="matrix(0.05,0,0,0.05,0,0)" xlink:href="#W"/><use transform="matrix(0.05,0,0,0.05,10,0)" xlink:href="#J"/><use transform="matrix(0.05,0,0,0.05,20,0)" xlink:href="#K"/><use transform="matrix(0.05,0,0,0.05,25.950000000000003,0)" xlink:href="#ac"/><use transform="matrix(0.05,0,0,0.05,34.95,0)" xlink:href="#I"/></g><path fill="#333" d="M115-194c53 0 69 39 70 98 0 66-23 100-70 100C84 3 66-7 56-30L54 0H23l1-261h32v101c10-23 28-34 59-34zm-8 174c40 0 45-34 45-75 0-40-5-75-45-74-42 0-51 32-51 76 0 43 10 73 51 73" id="ag"/><g id="B"><use transform="matrix(0.05,0,0,0.05,0,0)" xlink:href="#ag"/><use transform="matrix(0.05,0,0,0.05,10,0)" xlink:href="#Q"/><use transform="matrix(0.05,0,0,0.05,20,0)" xlink:href="#T"/><use transform="matrix(0.05,0,0,0.05,29,0)" xlink:href="#ac"/><use transform="matrix(0.05,0,0,0.05,38,0)" xlink:href="#J"/><use transform="matrix(0.05,0,0,0.05,48,0)" xlink:href="#K"/><use transform="matrix(0.05,0,0,0.05,53.95,0)" xlink:href="#Z"/><use transform="matrix(0.05,0,0,0.05,63.95,0)" xlink:href="#T"/><use transform="matrix(0.05,0,0,0.05,72.95,0)" xlink:href="#V"/><use transform="matrix(0.05,0,0,0.05,82.95,0)" xlink:href="#H"/><use transform="matrix(0.05,0,0,0.05,92.95,0)" xlink:href="#P"/><use transform="matrix(0.05,0,0,0.05,102.95,0)" xlink:href="#X"/></g><g id="C"><use transform="matrix(0.05,0,0,0.05,0,0)" xlink:href="#I"/><use transform="matrix(0.05,0,0,0.05,9,0)" xlink:href="#ab"/><use transform="matrix(0.05,0,0,0.05,12.949999999999998,0)" xlink:href="#H"/><use transform="matrix(0.05,0,0,0.05,22.95,0)" xlink:href="#ad"/></g><g id="D"><use transform="matrix(0.05,0,0,0.05,0,0)" xlink:href="#X"/><use transform="matrix(0.05,0,0,0.05,5,0)" xlink:href="#K"/><use transform="matrix(0.05,0,0,0.05,10.95,0)" xlink:href="#Q"/><use transform="matrix(0.05,0,0,0.05,20.95,0)" xlink:href="#P"/><use transform="matrix(0.05,0,0,0.05,30.950000000000003,0)" xlink:href="#I"/><use transform="matrix(0.05,0,0,0.05,39.95,0)" xlink:href="#Q"/><use transform="matrix(0.05,0,0,0.05,49.95,0)" xlink:href="#T"/><use transform="matrix(0.05,0,0,0.05,58.95,0)" xlink:href="#X"/><use transform="matrix(0.05,0,0,0.05,63.95,0)" xlink:href="#L"/><use transform="matrix(0.05,0,0,0.05,67.9,0)" xlink:href="#V"/><use transform="matrix(0.05,0,0,0.05,77.9,0)" xlink:href="#P"/><use transform="matrix(0.05,0,0,0.05,87.9,0)" xlink:href="#I"/></g><g id="E"><use transform="matrix(0.05,0,0,0.05,0,0)" xlink:href="#Q"/><use transform="matrix(0.05,0,0,0.05,10,0)" xlink:href="#R"/><use transform="matrix(0.05,0,0,0.05,24.950000000000003,0)" xlink:href="#V"/><use transform="matrix(0.05,0,0,0.05,34.95,0)" xlink:href="#H"/><use transform="matrix(0.05,0,0,0.05,44.95,0)" xlink:href="#P"/><use transform="matrix(0.05,0,0,0.05,54.95,0)" xlink:href="#X"/></g><g id="F"><use transform="matrix(0.05,0,0,0.05,0,0)" xlink:href="#I"/><use transform="matrix(0.05,0,0,0.05,9,0)" xlink:href="#X"/><use transform="matrix(0.05,0,0,0.05,14,0)" xlink:href="#Q"/><use transform="matrix(0.05,0,0,0.05,24,0)" xlink:href="#X"/><use transform="matrix(0.05,0,0,0.05,29,0)" xlink:href="#H"/><use transform="matrix(0.05,0,0,0.05,39,0)" xlink:href="#I"/></g><g id="G"><use transform="matrix(0.05,0,0,0.05,0,0)" xlink:href="#T"/><use transform="matrix(0.05,0,0,0.05,9,0)" xlink:href="#V"/><use transform="matrix(0.05,0,0,0.05,19,0)" xlink:href="#M"/><use transform="matrix(0.05,0,0,0.05,29,0)" xlink:href="#J"/></g></defs></g></svg>